<?xml version="1.0" encoding="UTF-8" standalone="no"?>
<!-- Created with Inkscape (http://www.inkscape.org/) -->

<svg
   xmlns:osb="http://www.openswatchbook.org/uri/2009/osb"
   xmlns:dc="http://purl.org/dc/elements/1.1/"
   xmlns:cc="http://creativecommons.org/ns#"
   xmlns:rdf="http://www.w3.org/1999/02/22-rdf-syntax-ns#"
   xmlns:svg="http://www.w3.org/2000/svg"
   xmlns="http://www.w3.org/2000/svg"
   xmlns:sodipodi="http://sodipodi.sourceforge.net/DTD/sodipodi-0.dtd"
   xmlns:inkscape="http://www.inkscape.org/namespaces/inkscape"
   width="698.69769mm"
   height="107.01925mm"
   viewBox="0 0 698.69769 107.01925"
   version="1.1"
   id="svg8"
   inkscape:version="0.92.2 2405546, 2018-03-11"
   sodipodi:docname="koala.svg">
  <defs
     id="defs2">
    <linearGradient
       id="linearGradient4542"
       osb:paint="solid">
      <stop
         style="stop-color:#000000;stop-opacity:1;"
         offset="0"
         id="stop4540" />
    </linearGradient>
    <clipPath
       clipPathUnits="userSpaceOnUse"
       id="clipPath6629">
      <rect
         style="opacity:1;fill:#683c1e;fill-opacity:1;stroke:none;stroke-width:1.38900006;stroke-linecap:butt;stroke-linejoin:miter;stroke-miterlimit:4;stroke-dasharray:none;stroke-opacity:1"
         id="rect6631"
         width="87.22982"
         height="250.94075"
         x="69.453125"
         y="9.265624"
         clip-path="none" />
    </clipPath>
    <clipPath
       clipPathUnits="userSpaceOnUse"
       id="clipPath884">
      <rect
         style="opacity:1;fill:#a0a0a0;fill-opacity:1;stroke:none;stroke-width:9.13599968;stroke-linecap:butt;stroke-linejoin:miter;stroke-miterlimit:4;stroke-dasharray:none;stroke-opacity:1"
         id="rect886"
         width="30.691664"
         height="40.878124"
         x="496.30444"
         y="-458.80234" />
    </clipPath>
  </defs>
  <sodipodi:namedview
     id="base"
     pagecolor="#ffffff"
     bordercolor="#666666"
     borderopacity="1.0"
     inkscape:pageopacity="0.0"
     inkscape:pageshadow="2"
     inkscape:zoom="1"
     inkscape:cx="530.07736"
     inkscape:cy="135.46805"
     inkscape:document-units="mm"
     inkscape:current-layer="layer1"
     showgrid="false"
     inkscape:measure-start="-56.25,760.938"
     inkscape:measure-end="167.188,698.438"
     inkscape:window-width="862"
     inkscape:window-height="1050"
     inkscape:window-x="750"
     inkscape:window-y="2"
     inkscape:window-maximized="0"
     fit-margin-top="0"
     fit-margin-left="0"
     fit-margin-right="0"
     fit-margin-bottom="0"
     showborder="true"
     inkscape:showpageshadow="false"
     borderlayer="true" />
  <metadata
     id="metadata5">
    <rdf:RDF>
      <cc:Work
         rdf:about="">
        <dc:format>image/svg+xml</dc:format>
        <dc:type
           rdf:resource="http://purl.org/dc/dcmitype/StillImage" />
        <dc:title />
      </cc:Work>
    </rdf:RDF>
  </metadata>
  <g
     inkscape:label="Layer 1"
     inkscape:groupmode="layer"
     id="layer1"
     transform="translate(-330.51473,581.69662)">
    <path
       style="fill:#b4b4b4;fill-opacity:1;stroke:#867e7e;stroke-width:9.13599968;stroke-linecap:butt;stroke-linejoin:miter;stroke-miterlimit:4;stroke-dasharray:none;stroke-opacity:1"
       d="m 445.66542,-537.95953 c 1.81605,-5.21584 -22.96615,-12.93837 -28.54746,-4.03656 -2.0373,3.24935 -4.43833,9.8321 -0.35183,17.95795 2.99044,5.94639 10.36621,7.4098 16.01902,8.21994 10.07364,1.44372 12.88027,-22.14133 12.88027,-22.14133 z"
       id="path4538-3-6-7-3"
       inkscape:connector-curvature="0"
       sodipodi:nodetypes="csssc" />
    <path
       style="fill:#b4b4b4;fill-opacity:1;stroke:#867e7e;stroke-width:9.13599968;stroke-linecap:butt;stroke-linejoin:miter;stroke-miterlimit:4;stroke-dasharray:none;stroke-opacity:1"
       d="m 482.69185,-537.9597 c -1.81605,-5.21584 22.96615,-12.93837 28.54746,-4.03656 2.0373,3.24935 4.43833,9.8321 0.35183,17.95795 -2.99044,5.94639 -10.36621,7.4098 -16.01902,8.21994 -10.07364,1.44371 -12.88027,-22.14133 -12.88027,-22.14133 z"
       id="path4538-3-6-7"
       inkscape:connector-curvature="0"
       sodipodi:nodetypes="csssc" />
    <ellipse
       style="opacity:1;fill:#867e7e;fill-opacity:1;stroke:none;stroke-width:5.75963831;stroke-linecap:butt;stroke-linejoin:miter;stroke-miterlimit:4;stroke-dasharray:none;stroke-opacity:1"
       id="path843"
       cx="464.44965"
       cy="-514.67737"
       rx="36.627247"
       ry="40" />
    <flowRoot
       xml:space="preserve"
       id="flowRoot83"
       style="font-style:normal;font-weight:normal;font-size:40px;line-height:1.25;font-family:sans-serif;letter-spacing:0px;word-spacing:0px;fill:#787878;fill-opacity:1;stroke:none"
       transform="matrix(0.26458333,0,0,0.26458333,40.609341,-838.07048)"><flowRegion
         id="flowRegion85"
         style="fill:#787878;fill-opacity:1"><rect
           id="rect87"
           width="53.033009"
           height="88.388344"
           x="1131.3708"
           y="1927.7917"
           style="fill:#787878;fill-opacity:1" /></flowRegion><flowPara
         id="flowPara89" /></flowRoot>    <text
       xml:space="preserve"
       style="font-style:normal;font-weight:normal;font-size:10.58333302px;line-height:1.25;font-family:sans-serif;letter-spacing:0px;word-spacing:0px;fill:#787878;fill-opacity:1;stroke:none;stroke-width:0.26458332"
       x="444.75259"
       y="-249.45035"
       id="text1385"><tspan
         sodipodi:role="line"
         id="tspan1383"
         x="444.75259"
         y="-240.08658"
         style="fill:#787878;fill-opacity:1;stroke-width:0.26458332" /></text>
    <text
       xml:space="preserve"
       style="font-style:normal;font-weight:normal;font-size:10.58333302px;line-height:1.25;font-family:sans-serif;letter-spacing:0px;word-spacing:0px;fill:#787878;fill-opacity:1;stroke:none;stroke-width:0.26458332"
       x="489.52502"
       y="-473.23447"
       id="text843"><tspan
         sodipodi:role="line"
         id="tspan841"
         x="489.52502"
         y="-463.8707"
         style="fill:#787878;fill-opacity:1;stroke-width:0.26458332" /></text>
    <g
       aria-label="alendar"
       transform="scale(1.0452112,0.95674444)"
       inkscape:transform-center-x="39.756342"
       inkscape:transform-center-y="38.587038"
       style="font-style:normal;font-variant:normal;font-weight:normal;font-stretch:normal;font-size:131.98121643px;line-height:1.25;font-family:Merriweather;-inkscape-font-specification:'Merriweather, Normal';font-variant-ligatures:normal;font-variant-caps:normal;font-variant-numeric:normal;font-feature-settings:normal;text-align:start;letter-spacing:0px;word-spacing:0px;writing-mode:lr-tb;text-anchor:start;fill:#000000;fill-opacity:1;stroke:none;stroke-width:0.42333382"
       id="text81-1-3">
      <path
         d="m 499.24571,-519.70038 q 0,-12.40624 12.40624,-18.21341 12.40623,-5.93915 31.41152,-6.3351 v -3.69547 q 0,-6.20312 -1.31981,-9.76661 -1.31981,-3.56349 -4.61934,-5.14727 -3.16755,-1.71575 -9.1067,-1.71575 -6.59906,0 -12.01029,1.97971 -5.27925,1.84774 -10.5585,4.61935 l -3.43151,-6.86303 q 1.71575,-1.45179 6.3351,-3.82745 4.61934,-2.37566 10.69047,-4.2234 6.20312,-1.84774 12.27426,-1.84774 9.37066,0 14.78189,2.63963 5.54321,2.50764 7.91888,8.18283 2.37566,5.67519 2.37566,15.17784 v 42.36597 h 7.78689 v 5.80718 q -2.77161,0.6599 -6.86302,1.31981 -3.95944,0.6599 -6.99501,0.6599 -3.69547,0 -5.01528,-1.18783 -1.18784,-1.05585 -1.18784,-4.8833 v -4.35538 q -10.95444,10.5585 -22.70076,10.5585 -9.50265,0 -15.83775,-5.41123 -6.3351,-5.54322 -6.3351,-15.83775 z m 27.84804,12.27425 q 3.43151,0 7.91887,-2.1117 4.48736,-2.1117 8.05085,-5.01528 v -22.70077 q -14.25397,0 -21.64491,4.48736 -7.39095,4.35538 -7.39095,11.48236 0,7.12699 3.56349,10.5585 3.56349,3.29953 9.50265,3.29953 z"
         style="font-style:normal;font-variant:normal;font-weight:normal;font-stretch:normal;font-size:131.98121643px;font-family:Merriweather;-inkscape-font-specification:'Merriweather, Normal';font-variant-ligatures:normal;font-variant-caps:normal;font-variant-numeric:normal;font-feature-settings:normal;text-align:start;writing-mode:lr-tb;text-anchor:start;fill:#000000;fill-opacity:1;stroke-width:0.42333382"
         id="path844" />
      <path
         d="m 583.25794,-598.36119 -10.69048,-1.45179 v -5.67519 l 21.38096,-2.50764 h 0.13198 l 2.90359,1.97971 v 98.58997 l 11.35038,1.05585 v 6.46708 h -35.76691 v -6.46708 l 10.69048,-1.18783 z"
         style="font-style:normal;font-variant:normal;font-weight:normal;font-stretch:normal;font-size:131.98121643px;font-family:Merriweather;-inkscape-font-specification:'Merriweather, Normal';font-variant-ligatures:normal;font-variant-caps:normal;font-variant-numeric:normal;font-feature-settings:normal;text-align:start;writing-mode:lr-tb;text-anchor:start;fill:#000000;fill-opacity:1;stroke-width:0.42333382"
         id="path846" />
      <path
         d="m 649.9064,-498.4514 q -15.96973,0 -24.41653,-10.42652 -8.31482,-10.42652 -8.31482,-27.84804 0,-11.48236 4.35539,-20.19312 4.35538,-8.71076 12.14227,-13.46209 7.91887,-4.75132 17.94944,-4.75132 12.27426,0 19.0053,6.86302 6.86302,6.73104 7.25896,19.40124 0,8.05085 -0.92386,12.27425 h -45.40154 q 0.26396,13.06614 6.07113,21.117 5.80718,7.91887 16.49766,7.91887 5.27924,0 10.95444,-1.84774 5.80717,-1.97971 8.97472,-4.61934 l 2.50764,5.80718 q -3.82745,3.95943 -11.35038,6.86302 -7.52293,2.90359 -15.30982,2.90359 z m 13.46208,-45.13758 q 0.39594,-2.77161 0.39594,-5.67519 -0.13198,-8.57878 -3.69547,-13.46209 -3.43151,-5.01528 -10.95444,-5.01528 -7.65491,0 -12.27425,5.54321 -4.48737,5.54321 -5.14727,18.60935 z"
         style="font-style:normal;font-variant:normal;font-weight:normal;font-stretch:normal;font-size:131.98121643px;font-family:Merriweather;-inkscape-font-specification:'Merriweather, Normal';font-variant-ligatures:normal;font-variant-caps:normal;font-variant-numeric:normal;font-feature-settings:normal;text-align:start;writing-mode:lr-tb;text-anchor:start;fill:#000000;fill-opacity:1;stroke-width:0.42333382"
         id="path848" />
      <path
         d="m 697.27734,-562.99022 -9.50265,-2.37566 v -7.12699 l 18.87332,-2.37566 h 0.39594 l 2.7716,2.37566 v 5.54321 l -0.13198,3.16755 q 4.75133,-4.2234 12.53822,-7.65491 7.78689,-3.43151 14.91388,-3.43151 8.31481,0 12.80217,3.16755 4.61935,3.16755 6.46708,9.76661 1.84774,6.46708 1.84774,17.5535 v 36.95474 l 9.23869,0.92387 v 6.59906 H 736.2118 v -6.46708 l 8.18283,-1.05585 v -37.08672 q 0,-7.78689 -1.05585,-12.14227 -1.05585,-4.48736 -3.95943,-6.59906 -2.90359,-2.24368 -8.4468,-2.24368 -4.75132,0 -10.16255,2.37566 -5.41123,2.37566 -9.63463,5.54321 v 50.02088 l 8.97472,1.18783 v 6.46708 h -31.14757 v -6.46708 l 8.31482,-1.18783 z"
         style="font-style:normal;font-variant:normal;font-weight:normal;font-stretch:normal;font-size:131.98121643px;font-family:Merriweather;-inkscape-font-specification:'Merriweather, Normal';font-variant-ligatures:normal;font-variant-caps:normal;font-variant-numeric:normal;font-feature-settings:normal;text-align:start;writing-mode:lr-tb;text-anchor:start;fill:#000000;fill-opacity:1;stroke-width:0.42333382"
         id="path850" />
      <path
         d="m 805.51018,-498.4514 q -7.91888,0 -14.51794,-3.95944 -6.59906,-3.95944 -10.55849,-12.14227 -3.82746,-8.18284 -3.82746,-20.19313 0,-11.2184 4.61934,-20.45709 4.61935,-9.23868 13.19813,-14.51793 8.71076,-5.41123 20.45708,-5.41123 6.73105,0 12.27426,1.45179 v -24.68049 l -13.46209,-1.58377 v -5.67519 l 23.75662,-2.37566 h 0.39595 l 2.90358,2.11169 v 99.24988 h 7.65491 v 6.07114 q -4.2234,0.92386 -7.39095,1.45179 -3.03556,0.52792 -6.46708,0.52792 -3.43151,0 -4.8833,-1.18783 -1.45179,-1.18783 -1.45179,-5.01528 v -4.2234 q -3.69548,4.48736 -9.76661,7.52293 -5.93916,3.03557 -12.93416,3.03557 z m 5.27925,-9.37067 q 5.14726,0 9.63462,-2.24368 4.48737,-2.37566 6.73105,-5.41123 v -48.30513 q -1.05585,-1.58377 -5.01529,-2.7716 -3.82745,-1.31981 -8.18283,-1.31981 -10.29454,0 -16.49766,7.91887 -6.07113,7.78689 -6.07113,24.15256 0,14.25397 5.41123,21.117 5.41123,6.86302 13.99001,6.86302 z"
         style="font-style:normal;font-variant:normal;font-weight:normal;font-stretch:normal;font-size:131.98121643px;font-family:Merriweather;-inkscape-font-specification:'Merriweather, Normal';font-variant-ligatures:normal;font-variant-caps:normal;font-variant-numeric:normal;font-feature-settings:normal;text-align:start;writing-mode:lr-tb;text-anchor:start;fill:#000000;fill-opacity:1;stroke-width:0.42333382"
         id="path852" />
      <path
         d="m 858.84297,-519.70038 q 0,-12.40624 12.40623,-18.21341 12.40624,-5.93915 31.41153,-6.3351 v -3.69547 q 0,-6.20312 -1.31981,-9.76661 -1.31981,-3.56349 -4.61934,-5.14727 -3.16755,-1.71575 -9.1067,-1.71575 -6.59906,0 -12.01029,1.97971 -5.27925,1.84774 -10.5585,4.61935 l -3.43151,-6.86303 q 1.71575,-1.45179 6.33509,-3.82745 4.61935,-2.37566 10.69048,-4.2234 6.20312,-1.84774 12.27426,-1.84774 9.37066,0 14.78189,2.63963 5.54321,2.50764 7.91888,8.18283 2.37566,5.67519 2.37566,15.17784 v 42.36597 h 7.78689 v 5.80718 q -2.77161,0.6599 -6.86302,1.31981 -3.95944,0.6599 -6.99501,0.6599 -3.69547,0 -5.01528,-1.18783 -1.18784,-1.05585 -1.18784,-4.8833 v -4.35538 q -10.95444,10.5585 -22.70076,10.5585 -9.50265,0 -15.83775,-5.41123 -6.3351,-5.54322 -6.3351,-15.83775 z m 27.84804,12.27425 q 3.43151,0 7.91887,-2.1117 4.48736,-2.1117 8.05085,-5.01528 v -22.70077 q -14.25397,0 -21.64491,4.48736 -7.39095,4.35538 -7.39095,11.48236 0,7.12699 3.56349,10.5585 3.56349,3.29953 9.50265,3.29953 z"
         style="font-style:normal;font-variant:normal;font-weight:normal;font-stretch:normal;font-size:131.98121643px;font-family:Merriweather;-inkscape-font-specification:'Merriweather, Normal';font-variant-ligatures:normal;font-variant-caps:normal;font-variant-numeric:normal;font-feature-settings:normal;text-align:start;writing-mode:lr-tb;text-anchor:start;fill:#000000;fill-opacity:1;stroke-width:0.42333382"
         id="path854" />
      <path
         d="m 933.22057,-506.37028 9.89859,-0.79189 v -55.82805 l -9.50264,-2.37566 v -7.12699 l 18.2134,-2.37566 h 0.26397 l 2.90358,2.37566 v 2.37566 l -0.39594,10.29454 h 0.39594 q 1.31982,-2.24368 4.75133,-5.80717 3.43151,-3.5635 8.84274,-6.46708 5.41123,-3.03557 11.74633,-3.03557 2.63962,0 4.35538,0.6599 v 14.7819 q -0.92387,-0.65991 -3.03557,-1.18783 -1.97972,-0.65991 -4.48736,-0.65991 -10.95444,0 -20.32511,6.73105 v 47.51323 l 16.76162,1.05585 v 6.3351 h -40.38626 z"
         style="font-style:normal;font-variant:normal;font-weight:normal;font-stretch:normal;font-size:131.98121643px;font-family:Merriweather;-inkscape-font-specification:'Merriweather, Normal';font-variant-ligatures:normal;font-variant-caps:normal;font-variant-numeric:normal;font-feature-settings:normal;text-align:start;writing-mode:lr-tb;text-anchor:start;fill:#000000;fill-opacity:1;stroke-width:0.42333382"
         id="path856" />
    </g>
    <g
       aria-label="K"
       transform="scale(1.0452112,0.95674444)"
       style="font-style:normal;font-variant:normal;font-weight:normal;font-stretch:normal;font-size:131.98121643px;line-height:1.25;font-family:Merriweather;-inkscape-font-specification:'Merriweather, Normal';font-variant-ligatures:normal;font-variant-caps:normal;font-variant-numeric:normal;font-feature-settings:normal;text-align:start;letter-spacing:0px;word-spacing:0px;writing-mode:lr-tb;text-anchor:start;fill:#000000;fill-opacity:1;stroke:none;stroke-width:0.42333382"
       id="text81-1-5">
      <path
         d="m 386.96006,-499.86243 q -2.24368,0 -5.80718,-5.27925 -3.43151,-5.41123 -9.89859,-16.89359 -0.79189,-1.45179 -4.48736,-7.78689 -3.56349,-6.46708 -6.73104,-11.08643 -3.03557,-4.61934 -5.41123,-7.25896 l -13.3301,15.04586 v 25.47237 l 12.01029,1.31981 v 6.46708 h -37.08673 v -6.46708 l 10.95445,-1.31981 v -82.09232 l -10.82246,-1.58377 v -6.59906 H 352.249 v 6.59906 l -10.95444,1.58377 v 46.19343 l 38.80247,-46.19343 -11.08642,-1.58377 v -6.59906 h 32.59936 v 6.59906 l -10.16255,1.58377 -28.50794,31.93946 q 4.61934,3.95944 9.76661,11.48237 5.27924,7.52292 12.80217,19.40123 6.46708,10.16256 9.37067,14.51794 3.03557,4.2234 4.75132,4.61934 l 6.20312,1.45179 v 6.46708 z"
         style="font-style:normal;font-variant:normal;font-weight:normal;font-stretch:normal;font-size:131.98121643px;font-family:Merriweather;-inkscape-font-specification:'Merriweather, Normal';font-variant-ligatures:normal;font-variant-caps:normal;font-variant-numeric:normal;font-feature-settings:normal;text-align:start;writing-mode:lr-tb;text-anchor:start;fill:#000000;fill-opacity:1;stroke-width:0.42333382"
         id="path841" />
    </g>
    <ellipse
       style="opacity:1;fill:#867e7e;fill-opacity:1;stroke:none;stroke-width:4.36520481;stroke-linecap:butt;stroke-linejoin:miter;stroke-miterlimit:4;stroke-dasharray:none;stroke-opacity:1"
       id="path843-8"
       cx="464.44998"
       cy="-514.67737"
       rx="27.759628"
       ry="30.315825" />
  </g>
</svg>
